<?xml version="1.0" encoding="iso-8859-1"?>
<!-- Generator: Adobe Illustrator 18.0.0, SVG Export Plug-In . SVG Version: 6.00 Build 0)  -->
<!DOCTYPE svg PUBLIC "-//W3C//DTD SVG 1.1//EN" "http://www.w3.org/Graphics/SVG/1.1/DTD/svg11.dtd">
<svg version="1.1" id="Capa_1" xmlns="http://www.w3.org/2000/svg" xmlns:xlink="http://www.w3.org/1999/xlink" x="0px" y="0px"
	 viewBox="0 0 478.561 478.561" style="enable-background:new 0 0 478.561 478.561;" xml:space="preserve" fill="#fff">
<g>
	<path d="M462.17,138.873l-12.77,12.771c-5.31,5.318-12.378,8.246-19.892,8.246c-7.513,0-14.581-2.928-19.89-8.246l-82.703-82.71
		c-5.317-5.31-8.237-12.377-8.237-19.891c0-7.514,2.92-14.582,8.237-19.892l12.763-12.762l-1.526-1.526
		c-7.12-7.121-18.665-7.121-25.786,0L206.597,120.631c-3.422,3.422-5.341,8.061-5.341,12.893c0,4.833,1.919,9.472,5.341,12.894
		l125.544,125.536c7.122,7.114,18.665,7.114,25.787,0l105.768-105.769c3.421-3.422,5.339-8.061,5.339-12.894
		c0-4.831-1.919-9.471-5.339-12.893L462.17,138.873z"/>
	<path d="M210.896,216.973c-15.829-15.813-43.427-15.813-59.256,0.016l-49.871,49.87l-7.807-7.807
		c-3.422-3.422-8.062-5.341-12.894-5.341c-4.833,0-9.472,1.919-12.894,5.341l-54.172,54.179c-7.12,7.121-7.12,18.667,0,25.787
		l1.526,1.518l13.618-13.618c10.621-10.635,29.163-10.635,39.782,0l82.703,82.703c10.966,10.966,10.966,28.816,0,39.782
		l-13.618,13.618l1.533,1.533c7.122,7.122,18.667,7.122,25.787,0l54.172-54.171c7.12-7.121,7.12-18.665,0-25.787l-7.816-7.814
		l49.879-49.879c7.915-7.914,12.276-18.441,12.276-29.632s-4.361-21.718-12.276-29.632L210.896,216.973z M191.514,330.001
		l-42.964-42.964l32.73-32.724l42.966,42.958L191.514,330.001z"/>
	<polygon points="0,400.703 77.84,478.557 126.885,429.511 49.04,351.665 	"/>
	<polygon points="478.561,77.85 400.699,0.004 351.662,49.043 429.507,126.897 	"/>
</g>
<g>
</g>
<g>
</g>
<g>
</g>
<g>
</g>
<g>
</g>
<g>
</g>
<g>
</g>
<g>
</g>
<g>
</g>
<g>
</g>
<g>
</g>
<g>
</g>
<g>
</g>
<g>
</g>
<g>
</g>
</svg>